<?xml version="1.0" encoding="UTF-8"?>
<svg version="1.1" xmlns="http://www.w3.org/2000/svg" width="120" height="120">
<path d="M0 0 C3.14249293 1.34678269 4.7487656 2.63710587 6.6875 5.4375 C9.97899234 10.04897384 13.58910902 14.3514526 17.2421875 18.6796875 C19 21 19 21 19 23 C19.66 23 20.32 23 21 23 C22.7265625 24.8984375 22.7265625 24.8984375 24.625 27.375 C25.25664063 28.18710937 25.88828125 28.99921875 26.5390625 29.8359375 C28 32 28 32 28 34 C28.66 34 29.32 34 30 34 C31.7265625 35.8984375 31.7265625 35.8984375 33.625 38.375 C34.25664063 39.18710937 34.88828125 39.99921875 35.5390625 40.8359375 C37 43 37 43 37 45 C37.66 45 38.32 45 39 45 C43.75755484 50.20509579 48.09699678 55.6727692 48.2265625 62.94140625 C47.72964627 67.4564899 46.49551005 70.62263835 43.12109375 73.73046875 C36.61860205 78.77199546 31.19312351 79.9449474 23 79 C16.27409514 76.74180908 11.12936757 72.7948436 6 68 C7.24536183 75.72124337 9.86433724 83.08401448 15.69140625 88.6015625 C17 90 17 90 17 93 C6.77 93 -3.46 93 -14 93 C-12.48791188 89.97582376 -11.07081258 87.6344164 -9.125 84.9375 C-5.69795537 79.88092925 -2 73.26852836 -2 67 C-2.639375 67.70125 -3.27875 68.4025 -3.9375 69.125 C-9.97522686 75.16272686 -16.27500314 79.0892524 -24.875 79.25 C-31.56371567 79.17142478 -36.17179962 76.56721657 -41 72 C-43.86049421 67.56130208 -44.63305877 64.2453441 -44 59 C-41.62960521 52.70098953 -37.65248862 47.79941545 -33.3125 42.75 C-32.04744813 41.24780181 -30.78442786 39.74389041 -29.5234375 38.23828125 C-28.91467773 37.51205566 -28.30591797 36.78583008 -27.67871094 36.03759766 C-24.76324329 32.49884068 -22.07648834 28.80589957 -19.359375 25.11328125 C-15.8698708 20.50875336 -12.19930334 16.05508454 -8.51538086 11.60522461 C-5.43416704 7.86095881 -2.61250464 4.08638741 0 0 Z " fill="#FDFDFD" transform="translate(58,14)"/>
<path d="M0 0 C0.66 0 1.32 0 2 0 C7 5.35714286 7 5.35714286 7 9 C-3.23 9 -13.46 9 -24 9 C-23.34 7.68 -22.68 6.36 -22 5 C-21.67 5.66 -21.34 6.32 -21 7 C-8.625 6.505 -8.625 6.505 4 6 C2.68 4.35 1.36 2.7 0 1 C0 0.67 0 0.34 0 0 Z " fill="#E4E4E4" transform="translate(68,98)"/>
<path d="M0 0 C0.33 0.66 0.66 1.32 1 2 C9.58 2 18.16 2 27 2 C27 2.33 27 2.66 27 3 C17.43 3.33 7.86 3.66 -2 4 C-1.34 2.68 -0.68 1.36 0 0 Z " fill="#EDEDED" transform="translate(46,103)"/>
</svg>
