<?xml version="1.0" encoding="UTF-8"?>
<svg version="1.1" xmlns="http://www.w3.org/2000/svg" width="120" height="120">
<path d="M0 0 C1.32 0 2.64 0 4 0 C4.19335938 0.55429688 4.38671875 1.10859375 4.5859375 1.6796875 C4.97652344 2.76636719 4.97652344 2.76636719 5.375 3.875 C5.63023438 4.59429688 5.88546875 5.31359375 6.1484375 6.0546875 C6.93877783 8.18157994 6.93877783 8.18157994 9 10 C9 10.99 9 11.98 9 13 C9.66 13 10.32 13 11 13 C11.12375 13.804375 11.2475 14.60875 11.375 15.4375 C11.58125 16.283125 11.7875 17.12875 12 18 C12.66 18.33 13.32 18.66 14 19 C14.84713227 20.26922257 15.65274167 21.56629324 16.4375 22.875 C20.45972338 29.07675329 25.7000029 33.90829973 31 39 C31.87914063 39.89074219 32.75828125 40.78148437 33.6640625 41.69921875 C35.97346749 44.08474581 35.97346749 44.08474581 38.8125 46.0625 C39.8953125 47.0215625 39.8953125 47.0215625 41 48 C41 49.32 41 50.64 41 52 C38.9453125 53.97265625 38.9453125 53.97265625 36.125 56.0625 C27.67756798 62.67022066 17.47983395 71.56049814 14 82 C13.34 82 12.68 82 12 82 C11.773125 82.639375 11.54625 83.27875 11.3125 83.9375 C9.82916163 87.39862287 8.01837527 90.56794501 6.12109375 93.81640625 C5.05555824 95.89178726 4.45964015 97.72245723 4 100 C2.68 100 1.36 100 0 100 C-0.5878125 98.2675 -0.5878125 98.2675 -1.1875 96.5 C-2.65908602 92.52388779 -4.64496373 89.16881477 -7.01171875 85.6640625 C-8 84 -8 84 -8 82 C-8.66 82 -9.32 82 -10 82 C-10.54527344 80.98679687 -11.09054688 79.97359375 -11.65234375 78.9296875 C-13.91742913 74.97597551 -16.5896323 71.56691157 -19.5625 68.125 C-20.07973633 67.51930176 -20.59697266 66.91360352 -21.12988281 66.28955078 C-25.33757165 61.48532561 -29.83991438 57.62469493 -35.015625 53.8671875 C-35.67046875 53.25101563 -36.3253125 52.63484375 -37 52 C-37 50.68 -37 49.36 -37 48 C-35.05859375 46.140625 -35.05859375 46.140625 -32.4375 44.25 C-27.60205999 40.5723414 -23.84967674 36.6649024 -20 32 C-18.7524295 30.6019948 -17.50244535 29.2061396 -16.25 27.8125 C-13.79620243 25.02384415 -11.85704101 22.22538702 -10 19 C-9.34 18.67 -8.68 18.34 -8 18 C-7.34444881 15.47266765 -7.34444881 15.47266765 -7 13 C-6.34 13 -5.68 13 -5 13 C-4.896875 12.443125 -4.79375 11.88625 -4.6875 11.3125 C-3.86913147 8.55980585 -2.47401082 6.4566847 -1 4 C-0.30420546 1.80869466 -0.30420546 1.80869466 0 0 Z " fill="#FFFEFE" transform="translate(57,15)"/>
</svg>
