<?xml version="1.0" encoding="UTF-8"?>
<svg version="1.1" xmlns="http://www.w3.org/2000/svg" width="120" height="120">
<path d="M0 0 C6.69061801 3.69797712 11.88892618 8.5691223 14.34375 15.93359375 C15.0527072 23.77861189 14.45956502 29.19862371 10.34375 35.93359375 C9.84875 36.92359375 9.84875 36.92359375 9.34375 37.93359375 C10.04628906 37.61003906 10.74882813 37.28648438 11.47265625 36.953125 C17.34269831 34.86866108 23.93268954 35.10068196 29.78125 37.12109375 C35.49344608 41.16142757 40.10485381 46.21690519 42.34375 52.93359375 C43.32651574 60.585127 41.86310894 66.65190106 37.34375 72.93359375 C31.14519626 78.87889918 25.90619232 80.3156713 17.4140625 80.203125 C10.98218683 79.63849469 6.96199607 76.86856991 2.53125 72.30859375 C-1.05862888 67.96467639 -2.48410998 63.38125404 -3.65625 57.93359375 C-2.45725885 69.51332407 -0.31401738 80.59378628 2.34375 91.93359375 C-4.25625 91.93359375 -10.85625 91.93359375 -17.65625 91.93359375 C-17.0375 89.29359375 -16.41875 86.65359375 -15.78125 83.93359375 C-13.81551067 75.31580525 -12.56595985 66.71947572 -11.65625 57.93359375 C-11.841875 58.85978516 -11.841875 58.85978516 -12.03125 59.8046875 C-14.12421159 68.39891104 -18.41667012 74.24309113 -25.90625 78.99609375 C-32.36786728 80.61149807 -38.77936397 80.97973412 -45.09375 78.68359375 C-46.3621875 77.81734375 -46.3621875 77.81734375 -47.65625 76.93359375 C-48.501875 76.41796875 -49.3475 75.90234375 -50.21875 75.37109375 C-55.0442086 70.54563515 -57.92224869 64.67048128 -58.21875 57.80859375 C-57.85553257 51.38166306 -55.37389371 46.91549033 -51.21875 42.12109375 C-44.12750608 36.06759285 -38.77362934 35.42311548 -29.65625 35.93359375 C-25.90625 36.93359375 -25.90625 36.93359375 -23.65625 37.93359375 C-24.00558594 37.46308594 -24.35492188 36.99257813 -24.71484375 36.5078125 C-25.16988281 35.88519531 -25.62492187 35.26257812 -26.09375 34.62109375 C-26.54621094 34.00621094 -26.99867187 33.39132813 -27.46484375 32.7578125 C-30.73683906 27.74790493 -30.16658109 21.67117332 -29.65625 15.93359375 C-27.57213926 8.3629987 -22.1246083 4.24583261 -15.84375 0.05859375 C-10.35218115 -1.87960702 -5.47439845 -2.19780997 0 0 Z M-21.65625 39.93359375 C-20.33625 41.25359375 -19.01625 42.57359375 -17.65625 43.93359375 C-17.32625 43.27359375 -16.99625 42.61359375 -16.65625 41.93359375 C-19.13125 40.94359375 -19.13125 40.94359375 -21.65625 39.93359375 Z M2.71875 41.43359375 C2.265 41.92859375 1.81125 42.42359375 1.34375 42.93359375 C2.33375 42.93359375 3.32375 42.93359375 4.34375 42.93359375 C5.00375 41.94359375 5.66375 40.95359375 6.34375 39.93359375 C4.22010519 39.70750038 4.22010519 39.70750038 2.71875 41.43359375 Z " fill="#FFFFFF" transform="translate(67.65625,17.06640625)"/>
</svg>
