<?xml version="1.0" encoding="UTF-8"?>
<svg version="1.1" xmlns="http://www.w3.org/2000/svg" width="120" height="120">
<path d="M0 0 C2.80412869 0.63856396 4.27703155 1.5789607 6.3671875 3.5390625 C8.16984026 8.94702078 7.7116471 13.41055713 5.3671875 18.5390625 C5.3671875 19.1990625 5.3671875 19.8590625 5.3671875 20.5390625 C14.6071875 20.5390625 23.8471875 20.5390625 33.3671875 20.5390625 C35.04453657 23.89376065 34.83673017 27.6579122 35.0546875 31.3515625 C35.11462891 32.15916016 35.17457031 32.96675781 35.23632812 33.79882812 C35.50130046 38.23076272 35.50607823 41.49893557 33.3671875 45.5390625 C32.68011719 45.3946875 31.99304688 45.2503125 31.28515625 45.1015625 C30.38410156 44.9159375 29.48304687 44.7303125 28.5546875 44.5390625 C27.66136719 44.3534375 26.76804687 44.1678125 25.84765625 43.9765625 C23.29458057 43.45221407 23.29458057 43.45221407 20.3671875 43.5390625 C20.18883235 48.08711885 20.36933315 51.4184879 22.3671875 55.5390625 C27.94548766 55.66375349 27.94548766 55.66375349 33.3671875 54.5390625 C35.34016651 58.66584841 35.61293226 62.00303483 35.59765625 66.5546875 C35.59719803 67.21112244 35.59673981 67.86755737 35.5962677 68.54388428 C35.5932616 69.92217838 35.58542481 71.30046958 35.57299805 72.67871094 C35.55462431 74.79634503 35.55248938 76.91354413 35.55273438 79.03125 C35.51479424 89.39145576 35.51479424 89.39145576 34.3671875 90.5390625 C30.27024642 90.78105114 26.16990318 90.7675726 22.06640625 90.77929688 C20.00739977 90.78899088 17.94939643 90.81999533 15.890625 90.8515625 C14.59640625 90.85671875 13.3021875 90.861875 11.96875 90.8671875 C10.77588379 90.8765332 9.58301758 90.88587891 8.35400391 90.89550781 C5.3671875 90.5390625 5.3671875 90.5390625 3.45458984 89.01855469 C3.09574707 88.53032227 2.7369043 88.04208984 2.3671875 87.5390625 C3.51892105 85.07106203 4.41502315 83.49122685 6.3671875 81.5390625 C6.3606264 78.49909718 6.3606264 78.49909718 5.3671875 75.5390625 C3.03990642 73.6427594 1.35532201 73.53782651 -1.6328125 73.2265625 C-5.07524387 73.5851491 -6.24912442 74.06209967 -8.6328125 76.5390625 C-8.89933867 79.52235457 -8.89933867 79.52235457 -8.3828125 82.7265625 C-8.25390625 83.81324219 -8.125 84.89992188 -7.9921875 86.01953125 C-7.87359375 86.85097656 -7.755 87.68242188 -7.6328125 88.5390625 C-11.35821912 91.02266691 -13.26344223 90.7706492 -17.70703125 90.734375 C-18.95830811 90.72937988 -20.20958496 90.72438477 -21.4987793 90.71923828 C-23.88543823 90.69192627 -23.88543823 90.69192627 -26.3203125 90.6640625 C-31.3734375 90.6228125 -36.4265625 90.5815625 -41.6328125 90.5390625 C-41.6328125 80.3090625 -41.6328125 70.0790625 -41.6328125 59.5390625 C-37.6328125 58.5390625 -37.6328125 58.5390625 -34.6328125 59.5390625 C-34.6328125 60.1990625 -34.6328125 60.8590625 -34.6328125 61.5390625 C-30.1778125 61.0440625 -30.1778125 61.0440625 -25.6328125 60.5390625 C-23.73736486 56.64701282 -23.73736486 56.64701282 -22.6328125 52.5390625 C-24.30601 49.15283474 -24.30601 49.15283474 -26.6328125 46.5390625 C-26.6328125 45.8790625 -26.6328125 45.2190625 -26.6328125 44.5390625 C-29.39557427 45.06174716 -31.9589001 45.64775837 -34.6328125 46.5390625 C-34.9628125 47.5290625 -35.2928125 48.5190625 -35.6328125 49.5390625 C-37.2828125 49.5390625 -38.9328125 49.5390625 -40.6328125 49.5390625 C-42.01590031 46.77288687 -41.74491446 44.5288825 -41.73046875 41.4375 C-41.72724609 40.22578125 -41.72402344 39.0140625 -41.72070312 37.765625 C-41.71232422 36.49460938 -41.70394531 35.22359375 -41.6953125 33.9140625 C-41.69080078 32.6353125 -41.68628906 31.3565625 -41.68164062 30.0390625 C-41.66982453 26.87234958 -41.65335065 23.70572894 -41.6328125 20.5390625 C-40.39660156 20.70277344 -39.16039062 20.86648437 -37.88671875 21.03515625 C-32.11018172 21.6769937 -26.37578666 21.64917838 -20.5703125 21.6015625 C-19.51392578 21.59705078 -18.45753906 21.59253906 -17.36914062 21.58789062 C-14.79030342 21.57622168 -12.21158956 21.55985135 -9.6328125 21.5390625 C-10.37105692 18.43884751 -10.37105692 18.43884751 -12.7578125 16.7890625 C-14.6328125 14.5390625 -14.6328125 14.5390625 -14.7578125 11.2265625 C-12.27184223 3.0781044 -8.61083165 -0.29507523 0 0 Z " fill="#FEFEFE" transform="translate(62.6328125,16.4609375)"/>
</svg>
