<?xml version="1.0" encoding="UTF-8"?>
<svg version="1.1" xmlns="http://www.w3.org/2000/svg" width="120" height="120">
<path d="M0 0 C3.12535005 1.17790564 4.79027179 2.68446099 7.16590881 5.03179932 C8.04967194 5.89649841 8.93343506 6.76119751 9.84397888 7.65209961 C10.79390815 8.60255162 11.74316202 9.55367905 12.69178772 10.50543213 C13.67308989 11.47895747 14.65483693 12.45203457 15.63700867 13.42468262 C17.68964564 15.46241814 19.73438703 17.50770387 21.77430725 19.5581665 C24.39051615 22.18598941 27.02880503 24.79032517 29.67387962 27.38904953 C31.70548939 29.39121849 33.72309966 31.40704613 35.73691177 33.42710114 C36.70429374 34.39345582 37.67641738 35.3550877 38.65328598 36.3118515 C40.01550921 37.64943822 41.35688502 39.00815728 42.69715881 40.36773682 C43.46595367 41.13527283 44.23474854 41.90280884 45.02684021 42.69360352 C46.54335022 44.95855713 46.54335022 44.95855713 46.54901123 47.451828 C45.2935935 50.58110532 43.69734045 52.2853913 41.29896545 54.65704346 C40.39810715 55.55759964 39.49724884 56.45815582 38.5690918 57.38600159 C37.58025479 58.35441398 36.59120039 59.32260443 35.60194397 60.29058838 C34.59359126 61.29147677 33.58612105 62.29325495 32.57949829 63.29588318 C29.93320961 65.92693061 27.2751287 68.54574249 24.61439514 71.16217041 C21.89923092 73.83634949 19.19541486 76.52194865 16.49061584 79.206604 C11.18588977 84.46848586 5.86865167 89.71749094 0.54335022 94.95855713 C-3.01143228 93.44280765 -5.31206069 91.36189613 -8.04161072 88.64825439 C-8.94224243 87.75715469 -9.84287415 86.86605499 -10.77079773 85.94795227 C-11.74453648 84.97395217 -12.71793757 83.9996144 -13.69102478 83.02496338 C-14.69399919 82.02587695 -15.69719664 81.02701438 -16.7006073 80.02836609 C-18.79865322 77.93777085 -20.89279535 75.84335615 -22.98448181 73.74639893 C-25.66845338 71.05661723 -28.36365317 68.37840669 -31.0620842 65.70314121 C-33.13474312 63.64519005 -35.2004593 61.58037948 -37.26421356 59.51350212 C-38.2554657 58.52276413 -39.24909059 57.53439434 -40.2450943 56.5484333 C-41.63362103 55.17220279 -43.01171435 53.78546947 -44.38926697 52.39825439 C-45.57029999 51.21816551 -45.57029999 51.21816551 -46.77519226 50.01423645 C-48.45664978 47.95855713 -48.45664978 47.95855713 -48.45664978 44.95855713 C-47.02017212 43.45184326 -47.02017212 43.45184326 -45.01402283 41.83551025 C-40.21416409 37.81052339 -35.89696293 33.4205975 -31.53868103 28.92730713 C-29.85648788 27.21302962 -28.17352284 25.49950925 -26.48985291 23.78668213 C-23.86233096 21.10951906 -21.23974581 18.42820395 -18.62974548 15.73394775 C-16.09216624 13.11799409 -13.5361684 10.52131075 -10.97618103 7.92730713 C-10.19588028 7.11290161 -9.41557953 6.29849609 -8.6116333 5.45941162 C-7.87704391 4.72114136 -7.14245453 3.98287109 -6.38560486 3.222229 C-5.74577164 2.56605591 -5.10593842 1.90988281 -4.44671631 1.23382568 C-2.45664978 -0.04144287 -2.45664978 -0.04144287 0 0 Z " fill="#FFFFFF" transform="translate(60.45664978027344,14.04144287109375)"/>
</svg>
