<?xml version="1.0" encoding="UTF-8"?>
<svg version="1.1" xmlns="http://www.w3.org/2000/svg" width="120" height="120">
<path d="M0 0 C5.66972499 3.18079659 10.18022587 7.13186917 14.6875 11.8125 C15.06519531 11.30460937 15.44289062 10.79671875 15.83203125 10.2734375 C21.06383184 3.73062364 27.10195065 -1.01989929 35.453125 -2.765625 C42.93461416 -3.23589003 48.76890614 -0.6429646 54.6875 3.8125 C57.09674496 6.28553353 58.92314315 8.85390161 60.6875 11.8125 C61.30625 12.740625 61.925 13.66875 62.5625 14.625 C64.60059559 20.39960417 64.78565116 25.82586162 62.65625 31.6171875 C59.06373854 38.66250165 54.12913889 44.14842916 48.6875 49.8125 C47.01028568 51.60370479 45.33949817 53.40079005 43.66845703 55.19775391 C41.86693326 57.13366851 40.06096736 59.06534804 38.25390625 60.99609375 C34.92984868 64.55045139 31.61614248 68.11416161 28.3125 71.6875 C27.82241455 72.21666016 27.3323291 72.74582031 26.82739258 73.29101562 C23.20115877 77.21979502 19.67616196 81.22877698 16.2109375 85.30078125 C14.6875 86.8125 14.6875 86.8125 12.6875 86.8125 C11.48446095 85.42252255 10.35114664 83.97201099 9.25 82.5 C5.15447143 77.21277066 0.63280733 72.67322875 -4.1875 68.0625 C-6.3125 65.8125 -6.3125 65.8125 -6.3125 63.8125 C-6.9725 63.8125 -7.6325 63.8125 -8.3125 63.8125 C-9.86328125 62.23828125 -9.86328125 62.23828125 -11.625 60.125 C-13.74894684 57.61447706 -15.86751344 55.20426579 -18.25 52.9375 C-20.3125 50.8125 -20.3125 50.8125 -20.3125 48.8125 C-20.9725 48.8125 -21.6325 48.8125 -22.3125 48.8125 C-29.22949418 41.66850022 -35.29363525 34.01684018 -35.8125 23.8125 C-35.42213435 15.67778355 -31.72324458 9.38566321 -26.21875 3.54296875 C-18.61536531 -3.35928415 -9.27085698 -4.40539971 0 0 Z " fill="#FEFEFE" transform="translate(45.3125,22.1875)"/>
</svg>
