<?xml version="1.0" encoding="UTF-8"?>
<svg version="1.1" xmlns="http://www.w3.org/2000/svg" width="120" height="120">
<path d="M0 0 C0.75410156 -0.00773437 1.50820312 -0.01546875 2.28515625 -0.0234375 C6.12917457 -0.00978202 7.98120282 0.07080188 11.25 2.25 C10.73050781 2.76046875 10.21101563 3.2709375 9.67578125 3.796875 C2.71747758 11.05100304 -2.22193658 19.67538438 -2.8125 29.91796875 C-2.49581406 41.73431305 1.36946134 52.33254835 9.25 61.25 C11.35909564 63.00690076 11.35909564 63.00690076 13.625 64.4375 C14.35460937 64.92605469 15.08421875 65.41460937 15.8359375 65.91796875 C21.47695134 69.030567 26.33921134 69.52276718 32.625 69.375 C33.36105469 69.36597656 34.09710938 69.35695313 34.85546875 69.34765625 C36.6537888 69.32430144 38.45193911 69.28843836 40.25 69.25 C39.27321828 75.87380103 32.93937385 81.07639648 27.96875 85.09375 C16.01103651 93.34625649 4.5797744 95.42836146 -9.75 94.25 C-18.79134791 92.36414078 -27.70288 87.17343344 -34.75 81.25 C-34.75 80.59 -34.75 79.93 -34.75 79.25 C-35.41 79.25 -36.07 79.25 -36.75 79.25 C-45.47624823 68.59717749 -49.56457347 57.73678561 -49.12890625 43.9921875 C-48.06903719 33.52461475 -44.45280374 25.29336449 -37.75 17.25 C-37.17636719 16.54101562 -36.60273437 15.83203125 -36.01171875 15.1015625 C-27.00023488 5.02876897 -13.31230573 -0.13939587 0 0 Z " fill="#FFFFFF" transform="translate(63.75,16.75)"/>
</svg>
