<?xml version="1.0" encoding="UTF-8"?>
<svg version="1.1" xmlns="http://www.w3.org/2000/svg" width="120" height="120">
<path d="M0 0 C1.32 0 2.64 0 4 0 C5.32 7.59 6.64 15.18 8 23 C10.8771875 23.9590625 10.8771875 23.9590625 13.8125 24.9375 C16.875 25.95833333 19.9375 26.97916667 23 28 C24.83982165 27.05464012 24.83982165 27.05464012 26.65234375 25.54296875 C27.34650391 25.00736328 28.04066406 24.47175781 28.75585938 23.91992188 C29.47580078 23.34822266 30.19574219 22.77652344 30.9375 22.1875 C32.36108185 21.07400529 33.78679662 19.96323098 35.21484375 18.85546875 C35.84511475 18.35684326 36.47538574 17.85821777 37.12475586 17.34448242 C39.01040535 15.99253974 40.89992226 14.97836932 43 14 C42.44777619 18.13063409 41.14964558 20.60015921 38.6875 23.9375 C38.06230469 24.80503906 37.43710938 25.67257813 36.79296875 26.56640625 C35.73980211 27.99586772 34.68197013 29.42194949 33.61328125 30.83984375 C31.50270658 33.54474634 31.50270658 33.54474634 31.27734375 36.8046875 C32.15585475 39.47346145 33.08969613 42.11401533 34.0625 44.75 C34.701875 46.4825 35.34125 48.215 36 50 C47.385 51.485 47.385 51.485 59 53 C59 54.32 59 55.64 59 57 C55.75128084 57.67301289 52.50083621 58.3372951 49.25 59 C48.32960938 59.19078125 47.40921875 59.3815625 46.4609375 59.578125 C45.57148437 59.75859375 44.68203125 59.9390625 43.765625 60.125 C42.54020996 60.37636719 42.54020996 60.37636719 41.29003906 60.6328125 C39 61 39 61 35 61 C34.9175 62.19625 34.835 63.3925 34.75 64.625 C34.45441947 68.91091766 32.46668975 71.55650111 30 75 C35.10681227 83.04223817 35.10681227 83.04223817 41 90.5 C43 93 43 93 43 97 C41.02 96.505 41.02 96.505 39 96 C39 95.34 39 94.68 39 94 C38.46890625 93.76539062 37.9378125 93.53078125 37.390625 93.2890625 C34.2822369 91.61297088 31.54600297 89.51548074 28.75 87.375 C28.19570312 86.95476562 27.64140625 86.53453125 27.0703125 86.1015625 C25.71133337 85.07061281 24.35536165 84.03570089 23 83 C22.34773438 83.34933594 21.69546875 83.69867188 21.0234375 84.05859375 C16.36304875 86.48502034 12.32863053 88.57931864 7 89 C6.95101562 89.60585937 6.90203125 90.21171875 6.8515625 90.8359375 C6.3017522 96.99760464 5.32390951 102.95885951 4 109 C2.68 109 1.36 109 0 109 C-0.50604924 106.60530271 -1.00499517 104.20948283 -1.5 101.8125 C-1.64308594 101.13896484 -1.78617188 100.46542969 -1.93359375 99.77148438 C-2.68069842 96.12490207 -3.17352282 92.72351043 -3 89 C-3.56847656 88.90203125 -4.13695312 88.8040625 -4.72265625 88.703125 C-5.49480469 88.55359375 -6.26695313 88.4040625 -7.0625 88.25 C-8.19365234 88.04117188 -8.19365234 88.04117188 -9.34765625 87.828125 C-12.92452001 86.7113428 -15.79085177 84.93255927 -19 83 C-19.85722656 83.67546875 -20.71445312 84.3509375 -21.59765625 85.046875 C-22.75241935 85.94815352 -23.90737778 86.8491818 -25.0625 87.75 C-25.62388672 88.1934375 -26.18527344 88.636875 -26.76367188 89.09375 C-30.67049681 92.12991109 -34.6549238 94.63096482 -39 97 C-39 92.27428122 -38.07516381 91.33237375 -35.25 87.6875 C-34.52941406 86.71296875 -33.80882813 85.7384375 -33.06640625 84.734375 C-31.87564502 83.15869852 -30.66489232 81.59688758 -29.40234375 80.078125 C-27.93788807 78.27196322 -27.93788807 78.27196322 -27 75 C-27.97755963 72.21069653 -29.22542123 69.85272556 -30.765625 67.33203125 C-32 65 -32 65 -32 61 C-39.9762419 59.49746145 -47.97284232 58.19960703 -56 57 C-56 55.68 -56 54.36 -56 53 C-48.08 52.01 -40.16 51.02 -32 50 C-31.34 47.03 -30.68 44.06 -30 41 C-28.375 37.9375 -28.375 37.9375 -27 36 C-30.74002838 29.98054604 -34.5159562 24.10659286 -38.93359375 18.55859375 C-40 17 -40 17 -40 15 C-35.10710966 15.44813388 -32.1086638 17.92537135 -28.4375 20.9375 C-23.62679551 25.2242605 -23.62679551 25.2242605 -18 28 C-14.96128614 27.14723732 -14.96128614 27.14723732 -11.875 25.625 C-6.13368984 23 -6.13368984 23 -4 23 C-2.68 15.41 -1.36 7.82 0 0 Z " fill="#FFFFFF" transform="translate(59,9)"/>
</svg>
